<?xml version="1.0" encoding="UTF-8" ?>
<!DOCTYPE svg PUBLIC "-//W3C//DTD SVG 1.1//EN" "http://www.w3.org/Graphics/SVG/1.1/DTD/svg11.dtd">
<svg width="180pt" height="199pt" viewBox="0 0 180 199" version="1.1" xmlns="http://www.w3.org/2000/svg">
<path fill="#fffffe" d=" M 0.00 0.00 L 121.73 0.00 C 121.01 0.62 119.57 1.86 118.86 2.48 C 121.37 1.83 123.87 2.87 126.34 3.24 C 124.86 2.21 123.13 1.44 121.98 0.00 L 180.00 0.00 L 180.00 63.58 C 177.20 64.76 174.66 66.56 174.56 69.93 C 175.08 70.47 175.62 71.01 176.16 71.55 C 177.40 70.28 178.62 68.99 179.80 67.67 C 178.36 68.23 176.93 68.79 175.49 69.36 C 175.90 68.59 176.73 67.06 177.15 66.30 C 177.86 66.64 179.29 67.32 180.00 67.66 L 180.00 199.00 L 13.83 199.00 C 13.16 197.35 12.61 195.65 11.93 194.02 C 11.67 195.66 11.57 197.33 11.60 199.00 L 0.00 199.00 L 0.00 115.82 C 1.35 115.61 2.71 115.39 4.05 115.13 C 3.38 114.01 2.70 112.90 2.02 111.79 C 1.51 112.33 0.50 113.41 0.00 113.94 L 0.00 0.00 Z" />
<path fill="#100b02" d=" M 121.73 0.00 L 121.98 0.00 C 123.13 1.44 124.86 2.21 126.34 3.24 C 123.87 2.87 121.37 1.83 118.86 2.48 C 119.57 1.86 121.01 0.62 121.73 0.00 Z" />
<path fill="#de6404" d=" M 114.44 1.25 C 115.63 0.34 116.35 0.56 116.59 1.90 C 115.39 2.80 114.68 2.58 114.44 1.25 Z" />
<path fill="#100b02" d=" M 48.20 3.93 C 49.64 3.93 50.68 6.40 49.96 7.60 C 48.48 7.63 47.93 5.11 48.20 3.93 Z" />
<path fill="#100b02" d=" M 131.69 5.18 C 134.10 4.25 136.61 4.61 138.72 6.09 C 136.35 6.21 133.86 6.32 131.69 5.18 Z" />
<path fill="#100b02" d=" M 137.99 7.80 C 138.98 7.75 139.98 7.71 140.97 7.68 C 141.74 7.93 143.27 8.43 144.03 8.68 C 144.25 9.08 144.70 9.90 144.93 10.31 C 145.57 10.87 146.22 11.43 146.87 12.00 C 146.04 12.12 145.21 12.24 144.38 12.37 C 142.23 10.88 140.10 9.35 137.99 7.80 Z" />
<path fill="#100b02" d=" M 146.67 13.68 C 148.33 13.28 150.04 12.70 151.76 13.17 C 151.67 13.74 151.50 14.89 151.42 15.47 C 151.50 16.61 151.58 17.76 151.63 18.91 C 150.68 18.10 149.75 17.27 148.85 16.42 C 148.12 17.42 147.40 18.42 146.66 19.41 C 146.60 18.74 146.46 17.39 146.40 16.71 C 147.12 16.53 148.56 16.16 149.28 15.98 C 148.62 15.41 147.32 14.26 146.67 13.68 Z" />
<path fill="#de6404" d=" M 110.13 16.04 C 111.59 15.58 112.05 16.04 111.50 17.41 C 110.06 17.87 109.60 17.42 110.13 16.04 Z" />
<path fill="#100b02" d=" M 143.66 24.52 C 140.57 23.33 143.94 21.37 144.81 20.40 L 144.16 22.26 C 145.68 22.21 147.20 22.17 148.73 22.10 L 148.35 20.57 L 149.46 22.22 C 148.28 22.82 147.12 23.45 146.02 24.18 C 146.90 25.35 147.50 26.68 145.88 27.44 C 145.93 25.46 145.53 23.57 143.87 22.34 L 143.66 24.52 Z" />
<path fill="#100b02" d=" M 139.32 26.25 C 140.79 25.60 142.29 28.09 140.32 28.44 C 138.90 29.02 137.39 26.56 139.32 26.25 Z" />
<path fill="#100b02" d=" M 78.66 27.80 C 79.14 27.70 80.10 27.50 80.59 27.39 C 80.52 28.97 80.45 30.54 80.34 32.11 C 79.76 30.68 79.24 29.23 78.66 27.80 Z" />
<path fill="#100b02" d=" M 52.43 35.48 C 52.87 38.37 52.50 41.31 52.95 44.20 C 53.85 43.14 54.75 42.06 55.65 40.99 C 55.81 41.74 56.13 43.22 56.29 43.96 C 64.67 40.19 73.93 39.22 82.97 38.29 C 88.06 37.98 93.15 38.81 98.12 39.83 C 101.66 40.43 104.59 42.96 108.24 43.06 C 109.33 43.40 110.43 43.74 111.52 44.10 C 116.99 46.07 122.45 48.38 127.12 51.89 C 128.85 53.03 129.78 55.58 132.04 55.70 C 135.74 53.97 138.77 50.84 143.01 50.35 C 140.86 54.34 136.90 56.69 133.07 58.80 C 133.35 59.35 133.91 60.45 134.19 61.01 C 133.66 60.63 132.60 59.86 132.07 59.48 C 131.42 60.49 130.78 61.50 130.13 62.51 C 130.27 72.82 139.02 81.16 137.86 91.68 C 140.78 90.55 143.73 89.50 146.75 88.67 C 145.84 86.35 144.68 83.72 146.46 81.46 C 145.93 78.67 145.35 75.89 144.72 73.11 C 146.29 73.29 147.69 74.10 148.32 75.60 C 150.25 78.79 152.16 82.14 152.61 85.91 C 153.02 86.09 153.84 86.47 154.24 86.65 L 153.97 83.52 C 155.33 85.29 156.44 87.45 156.20 89.74 L 154.90 87.23 C 154.42 87.80 153.94 88.36 153.46 88.93 C 153.53 94.94 157.14 100.05 157.65 106.00 C 157.95 111.33 157.83 116.69 157.75 122.03 C 156.21 133.58 153.85 145.42 147.51 155.39 C 140.27 167.54 128.16 176.67 114.48 180.28 C 110.70 181.19 106.75 181.46 103.13 182.99 C 98.24 184.87 93.56 188.22 88.05 187.55 C 80.56 188.19 73.19 186.14 66.36 183.25 C 65.27 179.61 61.02 179.79 57.99 179.08 C 51.35 178.24 46.48 173.22 40.47 170.83 L 39.54 168.97 C 38.66 170.67 39.27 172.33 41.02 173.10 C 39.99 173.64 38.96 174.18 37.92 174.72 C 38.11 173.44 38.30 172.16 38.50 170.89 L 37.18 171.63 C 36.82 171.06 36.12 169.92 35.76 169.34 C 37.13 169.35 38.44 168.92 39.58 168.20 C 37.91 166.61 36.08 165.38 34.11 167.23 L 35.54 169.01 C 34.94 169.08 33.74 169.21 33.14 169.28 C 32.69 169.77 31.80 170.75 31.36 171.24 C 31.14 171.91 30.71 173.26 30.49 173.94 C 30.07 173.69 29.24 173.21 28.83 172.96 C 29.46 172.09 30.08 171.21 30.65 170.30 C 32.42 169.71 33.14 168.04 33.76 166.46 C 34.44 166.02 35.13 165.59 35.82 165.17 C 33.76 164.44 32.19 162.97 31.00 161.20 C 30.22 160.18 29.32 159.25 28.41 158.35 C 28.36 157.84 28.26 156.81 28.21 156.30 C 27.24 155.33 26.27 154.36 25.28 153.41 C 25.28 155.54 25.28 157.67 25.21 159.81 C 21.78 157.61 19.09 154.49 17.35 150.81 C 18.06 149.74 18.76 148.65 19.47 147.58 C 19.91 146.95 20.80 145.69 21.25 145.06 C 22.81 145.20 24.35 145.56 25.88 145.90 C 26.26 146.02 27.03 146.26 27.41 146.37 C 27.48 145.90 27.62 144.94 27.69 144.47 C 26.97 143.70 26.24 142.94 25.52 142.19 C 23.34 142.25 20.82 142.24 20.05 144.78 C 17.64 143.20 16.18 140.71 14.75 138.30 C 14.30 138.83 13.40 139.87 12.95 140.39 C 12.12 139.38 11.37 138.32 10.59 137.29 C 10.67 133.78 11.35 130.35 11.97 126.91 C 11.78 125.68 11.60 124.45 11.42 123.22 C 12.49 121.61 13.15 119.78 13.80 117.97 C 12.93 114.71 11.81 111.52 10.40 108.45 C 10.12 107.00 9.97 105.54 9.83 104.08 C 12.97 100.94 12.36 96.10 14.38 92.35 C 12.83 92.44 10.70 94.53 9.61 92.57 C 8.76 90.73 8.49 88.67 8.80 86.67 C 8.75 85.22 8.73 83.78 8.76 82.33 C 9.50 83.72 10.14 85.15 10.80 86.58 C 12.22 84.85 13.51 82.91 13.55 80.57 C 11.73 80.90 9.97 81.53 8.15 81.86 C 7.94 79.13 10.88 78.32 12.55 76.84 C 12.21 76.42 11.54 75.60 11.21 75.18 C 12.31 73.72 13.36 72.22 14.35 70.68 C 15.00 70.68 16.30 70.69 16.95 70.70 C 15.76 71.88 14.57 73.07 13.39 74.26 C 15.23 73.46 17.19 73.78 18.41 75.40 C 17.54 75.54 15.79 75.81 14.91 75.95 C 14.59 77.44 13.72 78.65 12.61 79.66 C 13.12 80.09 14.13 80.95 14.64 81.37 C 16.98 79.12 19.26 76.82 21.58 74.55 C 21.28 74.25 20.68 73.64 20.39 73.33 C 21.68 72.08 22.97 70.82 24.27 69.58 C 23.05 69.65 20.63 69.80 19.41 69.88 C 19.88 67.09 22.22 68.38 24.02 68.86 C 25.14 68.05 26.35 67.37 27.65 66.91 C 27.61 66.36 27.52 65.27 27.48 64.73 C 29.10 63.61 31.28 62.91 32.05 60.93 C 32.61 59.17 34.33 58.50 35.85 57.78 C 38.06 54.15 36.77 48.75 40.85 46.35 C 40.40 48.63 39.91 50.92 39.68 53.24 C 44.61 51.03 49.15 48.03 53.46 44.79 C 51.57 45.14 49.79 45.89 48.09 46.77 C 48.20 46.17 48.41 44.97 48.52 44.37 C 49.12 44.34 50.31 44.27 50.91 44.24 C 49.95 43.27 48.98 42.32 48.01 41.36 L 46.81 43.36 C 46.59 42.00 47.16 40.85 48.08 39.89 C 49.42 40.18 50.76 40.45 52.11 40.70 C 52.00 38.94 52.11 37.20 52.43 35.48 Z" />
<path fill="#100b02" d=" M 67.47 36.32 C 69.04 35.83 69.60 36.41 69.13 38.07 C 67.53 38.57 66.98 37.99 67.47 36.32 Z" />
<path fill="#100b02" d=" M 136.18 39.46 C 137.37 38.61 139.32 40.36 138.12 41.49 C 136.97 42.34 134.81 40.51 136.18 39.46 Z" />
<path fill="#100b02" d=" M 124.25 39.59 C 125.13 39.95 126.90 40.67 127.78 41.03 C 128.60 40.56 129.42 40.10 130.24 39.65 C 129.34 40.81 128.41 41.94 127.50 43.08 C 126.38 41.95 125.26 40.82 124.25 39.59 Z" />
<path fill="#de6404" d=" M 67.71 45.76 C 75.81 41.22 85.30 44.75 94.01 44.37 C 102.31 43.99 109.93 47.74 117.70 50.03 C 119.44 51.19 121.39 51.91 123.38 52.50 C 123.40 53.14 123.43 54.41 123.45 55.04 C 124.70 55.18 125.95 55.33 127.20 55.47 C 127.35 56.91 127.52 58.35 127.69 59.79 L 126.26 59.84 C 126.96 60.41 127.67 60.97 128.39 61.52 L 124.57 60.44 L 126.63 63.33 C 126.01 62.68 125.39 62.04 124.75 61.42 C 119.03 66.80 112.65 71.58 107.79 77.81 C 104.53 81.56 100.57 84.68 97.70 88.77 C 91.43 88.69 85.07 87.02 78.88 88.68 C 72.84 90.08 67.77 94.46 64.87 99.85 C 62.14 105.16 62.07 111.28 62.40 117.10 C 61.92 116.42 60.97 115.06 60.49 114.38 C 59.25 113.96 58.00 113.55 56.76 113.14 C 56.49 111.78 56.22 110.43 55.95 109.08 C 55.21 109.19 53.72 109.43 52.98 109.54 C 52.25 107.73 51.53 105.91 50.85 104.08 C 50.38 104.25 49.45 104.58 48.98 104.75 C 49.24 103.38 49.51 102.02 49.78 100.66 C 47.88 100.26 46.01 99.79 44.12 99.34 C 44.39 96.61 45.34 94.02 47.25 92.00 C 47.39 92.87 47.68 94.63 47.82 95.50 C 49.50 92.38 49.94 88.85 49.81 85.35 C 49.28 85.12 48.22 84.66 47.69 84.43 C 47.83 79.28 43.93 73.82 46.93 68.95 C 49.22 67.47 51.81 66.53 54.17 65.17 C 50.96 65.96 47.85 67.08 44.72 68.11 C 44.34 66.71 43.96 65.32 43.56 63.93 C 44.37 59.33 47.41 55.73 49.75 51.85 C 51.38 51.28 53.02 50.72 54.66 50.16 C 54.87 50.77 55.30 52.00 55.51 52.61 C 56.13 52.65 57.38 52.73 58.00 52.77 C 57.98 52.41 57.95 51.70 57.93 51.34 C 57.36 51.45 56.22 51.68 55.65 51.79 C 56.32 50.39 57.00 48.99 57.67 47.59 C 61.09 47.53 64.63 47.41 67.71 45.76 Z" />
<path fill="#100b02" d=" M 128.22 45.99 C 126.90 48.64 123.51 44.81 126.14 43.73 C 127.41 43.97 128.10 44.72 128.22 45.99 Z" />
<path fill="#100b02" d=" M 174.77 48.13 C 175.76 48.78 176.75 49.43 177.75 50.07 C 177.74 50.63 177.71 51.75 177.70 52.31 C 176.33 52.74 174.98 53.24 173.63 53.72 C 173.99 51.85 174.38 49.99 174.77 48.13 Z" />
<path fill="#100b02" d=" M 177.06 55.06 C 180.04 53.60 177.11 58.38 177.06 55.06 Z" />
<path fill="#100b02" d=" M 65.83 60.20 C 67.79 59.66 69.53 58.64 71.10 57.38 C 73.66 57.13 75.85 58.31 77.49 60.20 C 78.63 60.26 79.77 60.32 80.91 60.38 C 78.71 62.41 77.04 64.91 74.95 67.04 C 71.05 68.90 67.34 65.65 67.07 61.73 C 66.76 61.34 66.14 60.58 65.83 60.20 Z" />
<path fill="#100b02" d=" M 19.30 67.17 C 20.73 65.37 22.29 63.67 24.14 62.28 C 24.14 63.78 23.50 64.87 22.23 65.56 L 23.47 67.33 C 22.43 67.29 20.34 67.21 19.30 67.17 Z" />
<path fill="#100b02" d=" M 174.56 69.93 C 174.66 66.56 177.20 64.76 180.00 63.58 L 180.00 67.66 C 179.29 67.32 177.86 66.64 177.15 66.30 C 176.73 67.06 175.90 68.59 175.49 69.36 C 176.93 68.79 178.36 68.23 179.80 67.67 C 178.62 68.99 177.40 70.28 176.16 71.55 C 175.62 71.01 175.08 70.47 174.56 69.93 Z" />
<path fill="#fffffe" d=" M 126.90 66.10 C 128.42 68.78 129.58 71.63 130.45 74.58 C 132.39 80.64 132.75 87.02 133.84 93.25 C 132.88 93.81 131.58 94.35 130.92 93.05 C 128.00 88.85 127.54 83.14 123.28 79.83 C 123.31 77.07 123.32 74.32 123.36 71.56 C 122.54 70.34 121.70 69.12 120.85 67.91 C 122.91 67.44 125.10 67.31 126.90 66.10 Z" />
<path fill="#fffffe" d=" M 117.03 72.14 C 117.58 71.80 118.67 71.11 119.21 70.77 C 120.97 74.64 120.44 79.09 117.59 82.30 C 116.28 79.97 115.36 77.45 114.60 74.90 C 114.99 74.39 115.75 73.39 116.13 72.89 C 116.65 73.32 117.69 74.18 118.22 74.62 C 117.92 74.00 117.33 72.76 117.03 72.14 Z" />
<path fill="#100b02" d=" M 173.68 73.72 C 174.09 72.77 174.49 71.81 174.88 70.85 C 175.21 72.62 175.94 74.19 177.08 75.57 C 176.48 76.56 175.88 77.55 175.26 78.54 C 174.03 77.15 172.97 75.63 172.05 74.03 L 170.83 74.57 L 170.85 72.42 C 171.77 72.90 172.71 73.33 173.68 73.72 Z" />
<path fill="#fffffe" d=" M 103.59 89.92 C 105.76 85.36 108.37 80.75 112.42 77.61 C 112.62 79.34 112.16 81.25 113.08 82.83 C 115.84 87.78 116.16 93.61 118.65 98.67 C 116.60 99.35 114.56 100.04 112.48 100.62 C 110.03 96.61 104.67 94.76 103.59 89.92 Z" />
<path fill="#100b02" d=" M 4.37 83.70 C 3.84 82.55 5.63 81.06 6.64 81.90 C 7.25 83.09 5.37 84.44 4.37 83.70 Z" />
<path fill="#100b02" d=" M 176.09 82.00 C 177.74 81.35 178.31 81.83 177.80 83.43 C 176.15 84.09 175.58 83.61 176.09 82.00 Z" />
<path fill="#fffffe" d=" M 121.82 82.41 C 125.51 85.88 127.23 90.70 129.10 95.27 C 126.78 95.94 124.48 96.71 122.17 97.41 C 121.59 95.13 120.84 92.91 119.85 90.78 C 119.57 89.12 119.48 87.43 119.40 85.74 C 120.41 84.78 121.21 83.67 121.82 82.41 Z" />
<path fill="#100b02" d=" M 171.80 89.04 C 172.74 90.14 173.67 91.25 174.60 92.37 C 173.50 92.53 172.41 92.69 171.31 92.85 C 171.46 91.58 171.63 90.31 171.80 89.04 Z" />
<path fill="#de6404" d=" M 126.90 98.96 C 134.50 95.65 142.58 93.60 150.11 90.15 C 152.34 93.78 151.70 98.01 150.60 101.89 C 151.13 107.39 152.50 113.01 151.32 118.52 C 147.93 124.20 142.76 128.50 138.22 133.22 C 134.79 136.77 133.23 141.57 130.40 145.54 C 126.57 150.42 118.98 151.39 116.54 157.54 C 114.82 162.02 113.20 167.01 109.01 169.84 C 102.24 175.03 92.84 174.61 85.18 171.83 C 77.17 169.80 68.15 168.06 63.06 160.83 C 63.48 160.47 64.32 159.73 64.74 159.37 C 64.30 159.05 63.43 158.42 63.00 158.10 C 63.79 157.11 64.57 156.11 65.36 155.12 C 63.97 155.88 62.59 156.64 61.21 157.40 C 61.43 158.91 61.65 160.42 61.87 161.93 C 59.32 161.08 56.44 160.57 54.58 158.45 C 51.96 155.51 47.22 153.73 47.50 149.09 C 49.63 150.28 51.77 151.44 53.94 152.53 C 53.74 151.89 53.33 150.62 53.13 149.98 C 55.03 146.75 50.32 143.01 53.70 140.50 C 53.58 141.59 53.45 142.69 53.31 143.78 C 54.39 144.93 55.45 146.09 56.51 147.27 C 56.57 144.95 56.38 142.54 57.45 140.40 C 56.61 140.15 55.76 139.91 54.91 139.66 C 53.92 138.64 52.92 137.62 51.93 136.60 C 51.39 137.79 50.86 138.97 50.32 140.16 C 50.44 140.55 50.68 141.33 50.80 141.72 C 50.51 142.17 49.92 143.08 49.62 143.54 C 49.02 143.65 47.82 143.88 47.22 143.99 C 47.72 145.72 48.21 147.43 48.69 149.16 C 44.21 147.66 40.04 145.14 37.88 140.77 C 42.49 141.88 44.92 136.75 49.33 136.97 C 49.48 136.69 49.78 136.13 49.94 135.85 C 51.04 136.17 51.76 135.88 52.11 134.98 C 52.29 132.68 49.34 133.63 48.02 132.99 C 49.07 132.04 50.12 131.09 51.17 130.14 C 51.60 130.55 52.48 131.39 52.91 131.81 C 53.43 130.59 53.94 129.37 54.47 128.16 C 53.79 127.70 53.11 127.25 52.44 126.80 C 52.64 127.45 53.03 128.76 53.23 129.41 C 52.44 129.42 50.86 129.44 50.07 129.44 C 50.57 128.07 51.08 126.70 51.59 125.34 C 52.75 125.58 53.90 125.81 55.06 126.05 C 54.68 125.33 53.93 123.87 53.56 123.15 L 56.63 123.35 C 55.55 123.00 54.47 122.67 53.39 122.35 C 53.50 121.77 53.71 120.62 53.82 120.04 C 52.94 120.22 51.18 120.58 50.30 120.76 C 50.37 119.15 50.46 117.55 50.55 115.94 C 52.34 116.47 54.13 117.01 55.92 117.55 C 55.70 118.40 55.49 119.25 55.27 120.10 C 58.09 120.56 57.61 123.26 57.58 125.38 C 58.29 124.69 59.00 124.01 59.71 123.32 C 60.13 123.27 60.97 123.16 61.39 123.11 C 61.43 123.76 61.51 125.06 61.55 125.71 C 63.24 125.80 65.51 124.66 66.67 126.44 C 69.12 129.15 72.77 130.41 75.02 133.33 C 76.64 132.85 78.25 132.36 79.87 131.88 C 79.67 131.38 79.28 130.37 79.08 129.86 C 76.13 129.47 73.23 128.21 71.67 125.54 C 74.89 125.98 78.06 126.73 81.14 127.76 C 81.48 127.17 82.16 125.98 82.50 125.39 C 83.02 125.25 84.07 124.98 84.59 124.85 C 84.75 125.66 85.09 127.27 85.25 128.08 C 84.51 127.86 83.02 127.43 82.28 127.21 C 82.58 128.41 82.89 129.60 83.21 130.80 C 84.21 130.20 85.21 129.60 86.22 129.01 C 86.42 131.61 86.16 134.32 86.98 136.82 C 88.23 138.12 89.78 139.07 91.25 140.09 C 94.00 141.46 96.06 143.79 98.02 146.09 C 98.97 145.56 99.92 145.04 100.87 144.52 C 101.58 146.42 102.30 148.33 103.05 150.23 C 104.93 150.76 106.80 151.36 108.68 151.93 C 108.50 153.39 108.32 154.85 108.14 156.32 C 106.88 155.95 105.63 155.58 104.37 155.22 C 104.01 155.86 103.28 157.15 102.92 157.79 C 103.12 156.75 103.53 154.65 103.73 153.61 C 102.33 153.92 100.93 154.20 99.50 154.35 C 100.45 155.69 101.38 157.06 102.28 158.45 C 100.74 158.61 99.21 158.77 97.68 158.94 C 97.59 156.68 97.47 154.43 97.27 152.18 C 98.00 152.36 99.44 152.72 100.16 152.90 C 99.78 151.95 99.39 151.01 99.00 150.06 C 98.58 150.47 97.74 151.29 97.33 151.70 C 95.12 151.36 92.92 150.97 90.72 150.62 C 90.72 149.36 90.71 148.10 90.70 146.85 C 89.58 147.16 88.48 147.52 87.38 147.90 C 87.64 150.05 89.46 151.36 90.92 152.71 C 89.66 153.24 88.44 153.84 87.28 154.55 C 88.16 154.59 89.92 154.67 90.81 154.70 C 93.93 155.84 96.25 158.16 97.73 161.11 C 97.33 161.59 96.52 162.57 96.12 163.06 C 96.50 163.60 97.27 164.69 97.66 165.23 C 97.34 165.63 96.72 166.43 96.41 166.83 C 97.15 167.22 97.90 167.60 98.65 167.99 C 98.62 167.42 98.55 166.27 98.51 165.70 C 101.22 165.48 103.57 164.17 105.51 162.32 L 105.73 164.23 C 107.51 162.74 108.91 160.90 109.97 158.85 C 108.93 158.65 106.86 158.26 105.82 158.07 C 107.38 157.82 108.94 157.61 110.51 157.41 C 110.85 158.16 111.54 159.65 111.88 160.40 C 115.34 158.94 116.70 155.47 116.89 151.97 C 114.55 151.18 112.12 150.65 109.65 150.63 C 109.47 149.38 109.30 148.13 109.13 146.88 C 109.90 146.73 111.46 146.42 112.23 146.27 C 112.59 147.28 112.96 148.29 113.32 149.30 C 113.03 147.97 112.73 146.65 112.44 145.33 C 108.75 145.68 105.17 144.27 101.47 144.53 C 103.42 143.21 105.28 141.76 106.94 140.08 C 107.41 141.93 108.11 143.71 109.24 145.28 C 109.32 144.29 109.48 142.31 109.56 141.32 C 112.12 141.81 114.64 141.28 115.64 138.61 C 120.80 138.96 124.90 135.22 129.54 133.56 C 129.48 132.90 129.35 131.57 129.29 130.90 C 129.79 130.63 130.80 130.10 131.30 129.83 C 133.12 129.37 134.86 128.69 136.54 127.86 C 134.89 127.36 133.25 126.06 131.43 126.53 C 127.20 127.59 122.78 128.34 118.98 130.61 C 120.15 131.65 121.43 132.54 122.72 133.42 C 120.74 135.78 118.01 133.81 116.94 131.64 C 111.97 132.75 107.21 134.56 102.62 136.73 C 102.57 136.06 102.48 134.72 102.43 134.06 C 101.73 134.47 100.32 135.29 99.62 135.70 C 99.09 135.25 98.57 134.80 98.04 134.36 C 96.51 133.99 94.97 133.63 93.43 133.28 C 93.62 131.50 93.86 129.72 94.17 127.95 C 93.04 123.98 91.47 120.15 89.45 116.54 C 89.42 115.92 89.37 114.69 89.34 114.07 C 95.06 110.43 101.44 107.99 107.97 106.25 C 111.86 105.32 115.03 102.66 118.89 101.67 C 121.61 100.92 124.32 100.12 126.90 98.96 Z" />
<path fill="#fffffe" d=" M 97.04 98.06 C 98.43 96.27 99.72 94.42 101.10 92.62 C 101.05 95.79 101.57 99.14 100.24 102.14 C 100.86 102.72 101.48 103.30 102.09 103.89 C 100.07 105.39 97.84 106.61 95.43 107.38 C 92.40 108.60 89.09 109.45 86.59 111.66 C 85.37 113.06 84.40 114.66 83.31 116.16 C 79.33 117.70 75.15 117.17 71.35 115.42 C 67.33 112.53 66.07 106.95 68.47 102.62 C 70.99 97.01 77.30 93.94 83.30 94.83 C 84.90 95.67 86.51 96.51 88.09 97.40 C 88.51 97.18 89.33 96.76 89.74 96.55 C 92.17 97.05 94.63 97.42 97.04 98.06 Z" />
<path fill="#fffffe" d=" M 104.04 95.73 C 105.35 94.72 106.65 97.11 105.62 98.06 C 104.25 99.13 102.93 96.70 104.04 95.73 Z" />
<path fill="#100b02" d=" M 160.37 96.17 C 161.94 96.24 161.82 98.98 160.37 99.16 C 158.89 98.99 158.94 96.38 160.37 96.17 Z" />
<path fill="#100b02" d=" M 169.53 99.22 C 171.81 99.58 168.58 104.36 167.63 102.05 C 167.75 100.75 168.39 99.81 169.53 99.22 Z" />
<path fill="#fffffe" d=" M 104.22 100.14 C 106.23 100.21 108.28 100.31 110.13 101.21 C 108.23 102.40 106.17 103.28 104.10 104.11 C 104.14 102.79 104.18 101.46 104.22 100.14 Z" />
<path fill="#100b02" d=" M 160.58 102.22 C 161.73 101.38 162.87 100.53 164.02 99.70 C 163.38 101.13 162.74 102.56 162.13 104.00 C 161.61 103.41 161.10 102.81 160.58 102.22 Z" />
<path fill="#100b02" d=" M 164.40 109.39 C 165.05 107.93 165.73 106.48 166.42 105.03 C 166.79 105.48 167.53 106.39 167.90 106.84 C 166.73 107.69 165.58 108.56 164.40 109.39 Z" />
<path fill="#de6404" d=" M 48.77 112.16 C 49.20 110.07 49.47 107.80 51.30 106.40 C 50.80 107.61 50.29 108.81 49.75 110.00 C 50.14 110.54 50.92 111.61 51.31 112.15 C 51.43 113.09 51.66 114.97 51.77 115.91 C 49.81 115.67 48.15 114.80 46.99 113.20 C 47.44 112.94 48.32 112.42 48.77 112.16 Z" />
<path fill="#100b02" d=" M 159.31 110.56 C 160.75 111.44 162.16 112.37 163.63 113.21 C 163.30 113.36 162.66 113.66 162.34 113.81 C 161.96 118.98 164.90 124.76 161.75 129.50 C 161.09 125.95 162.81 121.76 160.44 118.70 C 158.32 116.50 159.96 113.24 159.31 110.56 Z" />
<path fill="#100b02" d=" M 0.00 113.94 C 0.50 113.41 1.51 112.33 2.02 111.79 C 2.70 112.90 3.38 114.01 4.05 115.13 C 2.71 115.39 1.35 115.61 0.00 115.82 L 0.00 113.94 Z" />
<path fill="#de6404" d=" M 52.60 115.19 C 51.01 113.94 53.94 112.69 55.03 113.31 C 57.88 114.15 53.77 115.70 52.60 115.19 Z" />
<path fill="#de6404" d=" M 18.18 113.86 C 19.62 115.85 20.78 118.02 21.82 120.24 C 19.05 119.26 18.64 116.34 18.18 113.86 Z" />
<path fill="#de6404" d=" M 47.26 118.98 C 50.25 117.44 47.37 122.34 47.26 118.98 Z" />
<path fill="#de6404" d=" M 58.11 119.02 C 59.47 118.20 60.75 120.58 59.73 121.55 C 58.35 122.34 57.01 119.99 58.11 119.02 Z" />
<path fill="#de6404" d=" M 46.62 122.21 C 48.32 122.64 49.99 123.18 51.65 123.76 C 49.83 125.46 47.58 124.10 46.62 122.21 Z" />
<path fill="#100b02" d=" M 53.05 135.36 C 55.30 134.84 57.01 133.44 58.07 131.41 C 58.15 132.21 58.29 133.81 58.37 134.61 C 59.35 135.59 60.33 136.56 61.30 137.55 C 62.00 137.43 63.41 137.19 64.11 137.07 C 63.92 137.64 63.53 138.79 63.33 139.36 C 60.47 138.49 57.48 138.56 54.53 138.79 C 54.04 137.64 53.51 136.51 53.05 135.36 Z" />
<path fill="#de6404" d=" M 26.75 133.33 C 27.17 133.20 28.02 132.94 28.45 132.80 C 28.53 135.34 28.67 137.88 28.66 140.42 C 28.11 140.60 27.02 140.96 26.47 141.14 C 26.62 138.54 26.71 135.93 26.75 133.33 Z" />
<path fill="#100b02" d=" M 3.23 138.32 C 4.68 138.18 4.90 140.66 3.36 140.59 C 1.88 140.75 1.69 138.27 3.23 138.32 Z" />
<path fill="#100b02" d=" M 57.42 141.21 C 58.84 141.49 60.25 141.77 61.67 142.06 C 61.98 142.75 62.60 144.12 62.90 144.81 C 63.45 144.36 64.53 143.46 65.07 143.01 C 64.45 144.83 63.82 146.64 63.17 148.45 C 63.84 148.52 65.19 148.65 65.86 148.72 C 66.32 148.17 66.78 147.63 67.24 147.08 C 67.31 147.76 67.46 149.11 67.53 149.79 C 65.33 150.32 63.09 150.61 60.85 150.80 C 58.54 152.25 56.27 153.76 53.91 155.12 C 56.04 152.98 58.35 151.02 60.52 148.92 C 59.79 148.76 58.33 148.44 57.60 148.29 C 57.54 145.93 57.49 143.57 57.42 141.21 Z" />
<path fill="#de6404" d=" M 101.36 143.24 C 99.91 142.40 99.90 141.57 101.34 140.74 C 102.80 141.59 102.80 142.42 101.36 143.24 Z" />
<path fill="#100b02" d=" M 102.97 151.32 C 104.39 150.97 104.87 151.48 104.42 152.86 C 103.00 153.20 102.52 152.69 102.97 151.32 Z" />
<path fill="#de6404" d=" M 92.14 151.90 C 93.54 151.43 93.99 151.90 93.50 153.31 C 92.09 153.78 91.64 153.31 92.14 151.90 Z" />
<path fill="#100b02" d=" M 9.27 155.44 C 10.03 154.63 10.81 153.85 11.62 153.08 C 11.32 154.01 11.00 154.93 10.67 155.85 C 10.01 156.08 8.71 156.53 8.05 156.76 C 8.33 157.45 8.90 158.83 9.18 159.52 C 7.53 160.10 5.84 159.52 4.19 159.30 C 4.36 158.87 4.69 158.02 4.86 157.59 C 5.30 157.64 6.17 157.75 6.60 157.80 C 7.01 156.57 7.44 155.36 7.91 154.16 C 8.25 154.48 8.93 155.12 9.27 155.44 Z" />
<path fill="#de6404" d=" M 95.32 155.40 C 93.60 155.02 94.76 152.49 96.17 152.70 C 97.81 153.09 96.76 155.68 95.32 155.40 Z" />
<path fill="#de6404" d=" M 109.34 155.20 C 109.74 155.83 109.74 155.83 109.34 155.20 Z" />
<path fill="#de6404" d=" M 99.84 161.19 C 100.46 159.56 103.53 160.42 102.04 162.08 C 101.39 164.14 98.66 163.13 99.84 161.19 Z" />
<path fill="#100b02" d=" M 10.16 163.59 C 11.48 162.45 13.25 164.70 11.51 165.50 C 10.15 166.63 8.59 164.45 10.16 163.59 Z" />
<path fill="#100b02" d=" M 21.49 163.88 C 21.44 162.49 23.77 162.24 24.53 163.12 C 24.56 164.46 22.23 164.76 21.49 163.88 Z" />
<path fill="#100b02" d=" M 26.97 163.24 C 27.93 163.20 28.90 163.17 29.87 163.14 C 30.41 164.09 30.96 165.04 31.51 165.99 C 30.18 167.84 28.90 169.73 27.70 171.67 C 27.22 171.33 26.27 170.66 25.79 170.32 C 26.19 172.20 26.57 174.08 26.91 175.97 C 26.42 176.03 25.42 176.16 24.92 176.23 C 25.26 177.14 25.60 178.05 25.93 178.97 C 24.41 179.75 22.81 179.73 21.26 179.02 C 21.47 178.43 21.87 177.26 22.08 176.67 L 20.75 176.91 L 20.96 178.71 L 19.42 178.59 C 19.89 177.02 20.40 175.45 21.25 174.04 C 22.28 175.02 23.31 176.01 24.33 177.02 C 24.47 175.61 24.62 174.22 24.79 172.82 C 24.27 173.36 23.25 174.44 22.74 174.98 C 22.93 173.91 23.32 171.77 23.52 170.70 C 23.75 169.58 23.92 168.46 24.11 167.34 L 24.45 167.20 L 24.86 167.76 L 25.42 168.37 C 25.94 168.20 26.99 167.84 27.51 167.66 C 27.60 166.22 28.36 165.32 29.79 164.97 C 29.08 164.54 27.67 163.67 26.97 163.24 Z" />
<path fill="#de6404" d=" M 21.10 166.60 C 22.04 166.40 22.97 166.39 23.88 166.58 L 24.11 167.34 C 23.92 168.46 23.75 169.58 23.52 170.70 C 23.12 169.10 22.25 167.75 21.10 166.60 Z" />
<path fill="#100b02" d=" M 41.11 174.46 C 42.74 173.71 44.92 175.84 42.87 176.96 C 42.36 176.84 41.33 176.58 40.82 176.46 C 40.15 175.63 40.25 174.96 41.11 174.46 Z" />
<path fill="#100b02" d=" M 14.66 178.60 C 14.93 179.14 15.46 180.23 15.72 180.78 C 16.50 180.49 18.06 179.91 18.83 179.62 C 17.59 182.12 15.09 183.63 13.39 185.79 C 14.16 185.72 15.69 185.58 16.46 185.50 C 15.70 186.54 14.93 187.59 14.16 188.63 C 13.54 186.97 12.79 185.37 11.78 183.91 C 13.21 182.42 14.21 180.62 14.66 178.60 Z" />
<path fill="#100b02" d=" M 43.22 179.36 C 43.78 179.68 44.90 180.31 45.46 180.63 C 44.35 181.14 43.24 181.62 42.11 182.09 C 42.48 181.18 42.84 180.26 43.22 179.36 Z" />
<path fill="#100b02" d=" M 45.00 182.43 C 45.26 183.35 45.46 184.29 45.61 185.24 C 44.62 187.68 47.69 188.96 48.62 190.87 C 45.34 191.64 45.54 195.21 44.68 197.78 C 42.98 198.17 41.22 197.80 39.50 197.71 C 40.31 195.97 41.46 195.67 42.93 196.80 C 42.60 194.99 43.43 193.43 44.45 192.02 L 42.87 192.21 L 42.84 190.93 L 45.45 192.12 C 46.45 190.23 45.59 188.43 44.14 187.11 L 42.69 189.65 C 43.13 187.14 44.13 184.80 45.00 182.43 Z" />
<path fill="#100b02" d=" M 1.51 186.64 C 2.15 186.45 3.43 186.08 4.06 185.89 C 4.43 187.80 4.67 189.73 4.88 191.66 C 3.75 190.89 2.63 190.12 1.50 189.37 C 1.50 188.46 1.51 187.55 1.51 186.64 Z" />
<path fill="#100b02" d=" M 62.04 186.41 C 63.43 185.36 64.76 187.71 63.34 188.54 C 61.93 189.67 60.63 187.23 62.04 186.41 Z" />
<path fill="#100b02" d=" M 52.90 191.87 C 50.13 191.40 46.89 187.98 50.41 185.84 C 50.46 186.50 50.56 187.80 50.61 188.45 C 52.05 188.35 53.50 188.27 54.94 188.22 C 54.47 188.79 53.52 189.95 53.04 190.52 C 53.26 191.61 53.45 192.70 53.67 193.79 C 52.87 194.75 52.07 195.71 51.27 196.68 C 51.19 196.34 51.01 195.66 50.93 195.32 C 50.15 195.18 48.61 194.90 47.84 194.76 C 48.27 193.69 48.71 192.64 49.17 191.59 C 49.71 192.69 50.25 193.79 50.80 194.89 C 51.33 194.13 52.38 192.62 52.90 191.87 Z" />
<path fill="#100b02" d=" M 11.60 199.00 C 11.57 197.33 11.67 195.66 11.93 194.02 C 12.61 195.65 13.16 197.35 13.83 199.00 L 11.60 199.00 Z" />
</svg>
