<?xml version="1.0" encoding="UTF-8" standalone="no"?>
<!-- Created with Inkscape (http://www.inkscape.org/) -->

<svg
   xmlns:osb="http://www.openswatchbook.org/uri/2009/osb"
   xmlns:dc="http://purl.org/dc/elements/1.1/"
   xmlns:cc="http://creativecommons.org/ns#"
   xmlns:rdf="http://www.w3.org/1999/02/22-rdf-syntax-ns#"
   xmlns:svg="http://www.w3.org/2000/svg"
   xmlns="http://www.w3.org/2000/svg"
   xmlns:sodipodi="http://sodipodi.sourceforge.net/DTD/sodipodi-0.dtd"
   xmlns:inkscape="http://www.inkscape.org/namespaces/inkscape"
   version="1.1"
   width="210mm"
   height="297mm"
   id="svg2"
   inkscape:version="0.48.2 r9819"
   sodipodi:docname="dessin.svg">
  <sodipodi:namedview
     pagecolor="#ffffff"
     bordercolor="#666666"
     borderopacity="1"
     objecttolerance="10"
     gridtolerance="10"
     guidetolerance="10"
     inkscape:pageopacity="0"
     inkscape:pageshadow="2"
     inkscape:window-width="1680"
     inkscape:window-height="998"
     id="namedview3194"
     showgrid="false"
     inkscape:zoom="0.70710678"
     inkscape:cx="514.65158"
     inkscape:cy="987.99678"
     inkscape:window-x="-8"
     inkscape:window-y="-8"
     inkscape:window-maximized="1"
     inkscape:current-layer="layer1" />
  <defs
     id="defs4">
    <linearGradient
       id="linearGradient4089"
       osb:paint="gradient">
      <stop
         style="stop-color:#000000;stop-opacity:1;"
         offset="0"
         id="stop4091" />
      <stop
         style="stop-color:#000000;stop-opacity:0;"
         offset="1"
         id="stop4093" />
    </linearGradient>
  </defs>
  <metadata
     id="metadata7">
    <rdf:RDF>
      <cc:Work
         rdf:about="">
        <dc:format>image/svg+xml</dc:format>
        <dc:type
           rdf:resource="http://purl.org/dc/dcmitype/StillImage" />
        <dc:title />
      </cc:Work>
    </rdf:RDF>
  </metadata>
  <g
     id="layer1">
    <path
       style="fill:none;stroke:none;stroke-width:0.39913820999999999px;stroke-linecap:butt;stroke-linejoin:miter;stroke-opacity:1"
       d="M 40.126998,0.5617511 40.126998,20.511862 60.090713,20.511862 60.090713,0.5617511 40.126998,0.5617511 z M 60.090713,20.511862 60.090713,40.461962 40.126998,40.461962 40.126998,60.412072 20.163284,60.412072 20.163284,80.362182 0.19956911,80.362182 0.19956911,140.2125 20.163284,140.2125 20.163284,100.31229 40.126998,100.31229 40.126998,140.2125 60.090713,140.2125 60.090713,120.26239 159.90929,120.26239 159.90929,140.2125 179.873,140.2125 179.873,100.31229 199.83672,100.31229 199.83672,140.2125 219.80043,140.2125 219.80043,80.362182 199.83672,80.362182 199.83672,60.412072 179.873,60.412072 179.873,40.461962 159.90929,40.461962 159.90929,20.511862 139.94557,20.511862 139.94557,40.461962 80.054428,40.461962 80.054428,20.511862 60.090713,20.511862 z M 159.90929,20.511862 179.873,20.511862 179.873,0.5617511 159.90929,0.5617511 159.90929,20.511862 z M 159.90929,140.2125 119.98186,140.2125 119.98186,160.16261 159.90929,160.16261 159.90929,140.2125 z M 60.090713,140.2125 60.090713,160.16261 100.01814,160.16261 100.01814,140.2125 60.090713,140.2125 z M 60.090713,60.412072 80.054428,60.412072 80.054428,80.362182 60.090713,80.362182 60.090713,60.412072 z M 139.94557,60.412072 159.90929,60.412072 159.90929,80.362182 139.94557,80.362182 139.94557,60.412072 z"
       id="path5543"
       inkscape:connector-curvature="0" />
  </g>
</svg>
