<?xml version="1.0" encoding="UTF-8" standalone="no"?>
<!-- Created with Inkscape (http://www.inkscape.org/) -->

<svg
   xmlns:osb="http://www.openswatchbook.org/uri/2009/osb"
   xmlns:dc="http://purl.org/dc/elements/1.1/"
   xmlns:cc="http://creativecommons.org/ns#"
   xmlns:rdf="http://www.w3.org/1999/02/22-rdf-syntax-ns#"
   xmlns:svg="http://www.w3.org/2000/svg"
   xmlns="http://www.w3.org/2000/svg"
   xmlns:xlink="http://www.w3.org/1999/xlink"
   xmlns:sodipodi="http://sodipodi.sourceforge.net/DTD/sodipodi-0.dtd"
   xmlns:inkscape="http://www.inkscape.org/namespaces/inkscape"
   version="1.1"
   width="210mm"
   height="297mm"
   id="svg2"
   inkscape:version="0.48.2 r9819"
   sodipodi:docname="space-invader2.svg">
  <sodipodi:namedview
     pagecolor="#ffffff"
     bordercolor="#666666"
     borderopacity="1"
     objecttolerance="10"
     gridtolerance="10"
     guidetolerance="10"
     inkscape:pageopacity="0"
     inkscape:pageshadow="2"
     inkscape:window-width="1680"
     inkscape:window-height="998"
     id="namedview3194"
     showgrid="false"
     inkscape:zoom="128"
     inkscape:cx="97.225768"
     inkscape:cy="1050.6854"
     inkscape:window-x="-8"
     inkscape:window-y="-8"
     inkscape:window-maximized="1"
     inkscape:current-layer="layer1" />
  <defs
     id="defs4">
    <linearGradient
       id="linearGradient3785">
      <stop
         style="stop-color:#000000;stop-opacity:1;"
         offset="0"
         id="stop3787" />
      <stop
         style="stop-color:#000000;stop-opacity:0;"
         offset="1"
         id="stop3789" />
    </linearGradient>
    <linearGradient
       id="linearGradient4089"
       osb:paint="gradient">
      <stop
         style="stop-color:#000000;stop-opacity:1;"
         offset="0"
         id="stop4091" />
      <stop
         style="stop-color:#000000;stop-opacity:0;"
         offset="1"
         id="stop4093" />
    </linearGradient>
    <radialGradient
       inkscape:collect="always"
       xlink:href="#linearGradient3785"
       id="radialGradient3793"
       cx="109.90022"
       cy="972.46198"
       fx="109.90022"
       fy="972.46198"
       r="110.09978"
       gradientTransform="matrix(1,0,0,0.72751999,0,264.97645)"
       gradientUnits="userSpaceOnUse" />
  </defs>
  <metadata
     id="metadata7">
    <rdf:RDF>
      <cc:Work
         rdf:about="">
        <dc:format>image/svg+xml</dc:format>
        <dc:type
           rdf:resource="http://purl.org/dc/dcmitype/StillImage" />
        <dc:title></dc:title>
      </cc:Work>
    </rdf:RDF>
  </metadata>
  <g
     id="layer1">
    <path
       style="fill:none;fill-opacity:1;fill-rule:nonzero;stroke:none;stroke-width:0.50000000000000000;stroke-linecap:butt;stroke-linejoin:miter;stroke-miterlimit:4;stroke-opacity:1;stroke-dasharray:none"
       d="M 80.250008,2.1122767 80.250008,22.112274 20.25,22.112274 20.25,42.112274 0.25,42.112274 0.25,102.11227 60.250008,102.11227 60.250008,122.11227 40.25,122.11227 40.25,142.11227 80.250008,142.11227 80.250008,122.11227 100.25001,122.11227 100.25001,102.11227 120.25001,102.11227 120.25001,122.11227 140.25001,122.11227 140.25001,142.11227 180.25001,142.11227 180.25001,122.11227 160.25001,122.11227 160.25001,102.11227 220.25001,102.11227 220.25001,42.112274 200.25001,42.112274 200.25001,22.112274 140.25001,22.112274 140.25001,2.1122767 80.250008,2.1122767 z M 180.25001,142.11227 180.25001,162.11218 220.25001,162.11218 220.25001,142.11227 180.25001,142.11227 z M 120.25001,122.11227 100.25001,122.11227 100.25001,142.11227 120.25001,142.11227 120.25001,122.11227 z M 40.25,142.11227 0.25,142.11227 0.25,162.11218 40.25,162.11218 40.25,142.11227 z M 60.250008,62.112274 100.25001,62.112274 100.25001,82.112274 60.250008,82.112274 60.250008,62.112274 z M 120.25001,62.112274 160.25001,62.112274 160.25001,82.112274 120.25001,82.112274 120.25001,62.112274 z"
       id="path3795"
       inkscape:connector-curvature="0" />
  </g>
</svg>
