<?xml version="1.0" encoding="UTF-8" standalone="no"?>
<!-- Created with Inkscape (http://www.inkscape.org/) -->

<svg
   xmlns:osb="http://www.openswatchbook.org/uri/2009/osb"
   xmlns:dc="http://purl.org/dc/elements/1.1/"
   xmlns:cc="http://creativecommons.org/ns#"
   xmlns:rdf="http://www.w3.org/1999/02/22-rdf-syntax-ns#"
   xmlns:svg="http://www.w3.org/2000/svg"
   xmlns="http://www.w3.org/2000/svg"
   xmlns:xlink="http://www.w3.org/1999/xlink"
   xmlns:sodipodi="http://sodipodi.sourceforge.net/DTD/sodipodi-0.dtd"
   xmlns:inkscape="http://www.inkscape.org/namespaces/inkscape"
   version="1.1"
   width="220"
   height="160"
   id="svg2"
   inkscape:version="0.48.2 r9819"
   sodipodi:docname="space-invader3.svg">
  <sodipodi:namedview
     pagecolor="#ffffff"
     bordercolor="#666666"
     borderopacity="1"
     objecttolerance="10"
     gridtolerance="10"
     guidetolerance="10"
     inkscape:pageopacity="0"
     inkscape:pageshadow="2"
     inkscape:window-width="1680"
     inkscape:window-height="998"
     id="namedview3194"
     showgrid="false"
     inkscape:zoom="1"
     inkscape:cx="139.8768"
     inkscape:cy="-82.530347"
     inkscape:window-x="-8"
     inkscape:window-y="-8"
     inkscape:window-maximized="1"
     inkscape:current-layer="layer1"
     fit-margin-top="0"
     fit-margin-left="0"
     fit-margin-right="0"
     fit-margin-bottom="0" />
  <defs
     id="defs4">
    <linearGradient
       id="linearGradient3785">
      <stop
         style="stop-color:#000000;stop-opacity:1;"
         offset="0"
         id="stop3787" />
      <stop
         style="stop-color:#000000;stop-opacity:0;"
         offset="1"
         id="stop3789" />
    </linearGradient>
    <linearGradient
       id="linearGradient4089"
       osb:paint="gradient">
      <stop
         style="stop-color:#000000;stop-opacity:1;"
         offset="0"
         id="stop4091" />
      <stop
         style="stop-color:#000000;stop-opacity:0;"
         offset="1"
         id="stop4093" />
    </linearGradient>
    <radialGradient
       inkscape:collect="always"
       xlink:href="#linearGradient3785"
       id="radialGradient3793"
       cx="109.90022"
       cy="972.46198"
       fx="109.90022"
       fy="972.46198"
       r="110.09978"
       gradientTransform="matrix(1,0,0,0.72751999,0,264.97645)"
       gradientUnits="userSpaceOnUse" />
  </defs>
  <metadata
     id="metadata7">
    <rdf:RDF>
      <cc:Work
         rdf:about="">
        <dc:format>image/svg+xml</dc:format>
        <dc:type
           rdf:resource="http://purl.org/dc/dcmitype/StillImage" />
        <dc:title />
      </cc:Work>
    </rdf:RDF>
  </metadata>
  <g
     id="layer1"
     transform="translate(0.625005,-872.87512)"
     style="fill:#000000;stroke:none">
    <path
       style="fill:#000000;stroke:none"
       d="M 40,892.375 40,912.375 60,912.375 60,892.375 40,892.375 z M 60,912.375 60,932.375 40,932.375 40,952.375 20,952.375 20,912.375 0,912.375 0,992.375 20,992.375 C 20.000012,999.04167 20.000005,1005.7083 20,1012.375 L 40,1012.375 40,1032.375 60,1032.375 60,1012.375 160,1012.375 160,1032.375 180,1032.375 180,1012.375 200,1012.375 200,992.375 220,992.375 220,912.375 200,912.375 200,952.375 180,952.375 180,932.375 160,932.375 160,912.375 140,912.375 140,932.375 80,932.375 80,912.375 60,912.375 z M 160,912.375 180,912.375 180,892.375 160,892.375 160,912.375 z M 180,1032.375 180,1052.375 200,1052.375 200,1032.375 180,1032.375 z M 40,1032.375 20,1032.375 20,1052.375 40,1052.375 40,1032.375 z M 60,952.375 80,952.375 80,972.375 60,972.375 60,952.375 z M 140,952.375 160,952.375 160,972.375 140,972.375 140,952.375 z"
       transform="translate(-0.625005,-19.499883)"
       id="path3795"
       inkscape:connector-curvature="0" />
  </g>
</svg>
